<svg width="39" height="21" viewBox="0 0 39 21" fill="none" xmlns="http://www.w3.org/2000/svg">
<path d="M11.7147 7.76574H10.2192L9.40341 11.9606H10.7309C11.6117 11.9606 12.2676 11.7943 12.6985 11.4632C13.1293 11.1305 13.4192 10.5776 13.5697 9.80139C13.7155 9.05683 13.6489 8.53089 13.3733 8.22515C13.0961 7.91941 12.5448 7.76574 11.7147 7.76574ZM19.6196 0.606934C9.12142 0.606934 0.609741 5.08377 0.609741 10.6061C0.609741 16.1285 9.12142 20.6069 19.6196 20.6069C30.1179 20.6069 38.6295 16.1285 38.6295 10.6061C38.6295 5.08377 30.1179 0.606934 19.6196 0.606934ZM14.4553 12.4105C14.0418 12.8065 13.5444 13.1044 13.0026 13.2834C12.4703 13.4545 11.7907 13.5432 10.967 13.5432H9.09608L8.57806 16.2061H6.39509L8.3436 6.18475H12.5416C13.8042 6.18475 14.7246 6.51584 15.3044 7.17961C15.8842 7.84178 16.0585 8.76693 15.8272 9.95505C15.7386 10.4252 15.5755 10.8782 15.344 11.2968C15.1175 11.7008 14.8212 12.0731 14.4553 12.4105ZM20.8299 13.5432L21.6901 9.10911C21.7899 8.60535 21.7519 8.26 21.5824 8.07783C21.4129 7.89406 21.0501 7.80218 20.4941 7.80218H18.7642L17.6489 13.5448H15.4818L17.4303 3.52178H19.5959L19.0779 6.18634H21.0074C22.2224 6.18634 23.0588 6.39862 23.5198 6.82159C23.9808 7.24456 24.1187 7.9305 23.9365 8.87941L23.0303 13.5432H20.8299ZM32.8648 9.95505C32.7776 10.4256 32.6145 10.8788 32.3816 11.2968C32.1551 11.7008 31.8589 12.0731 31.4929 12.4105C31.0792 12.8053 30.5831 13.1035 30.0402 13.2834C29.508 13.4545 28.8284 13.5432 28.003 13.5432H26.1337L25.6157 16.2077H23.4327L25.3812 6.18634H29.5777C30.8402 6.18634 31.7606 6.51743 32.3404 7.18119C32.9202 7.84179 33.0961 8.76693 32.8648 9.95505ZM28.7539 7.76574H27.26L26.4426 11.9606H27.7701C28.6525 11.9606 29.3084 11.7943 29.7377 11.4632C30.1686 11.1305 30.4585 10.5776 30.6105 9.80139C30.7563 9.05683 30.6882 8.53089 30.4125 8.22515C30.1369 7.91941 29.5824 7.76574 28.7539 7.76574Z" fill="#EDEDED"/>
</svg>
