<svg width="31" height="31" viewBox="0 0 31 31" fill="none" xmlns="http://www.w3.org/2000/svg">
<path d="M0.495483 0.606934V30.6069H30.4955V0.606934H0.495483ZM16.8214 24.0043C16.8214 26.9239 15.1071 28.2565 12.6093 28.2565C10.3526 28.2565 9.04682 27.0913 8.37718 25.6784L10.6741 24.2922C11.116 25.0757 11.5178 25.7386 12.4888 25.7386C13.4129 25.7386 14.0022 25.377 14.0022 23.9641V14.3815H16.8214V24.0043ZM23.491 28.2565C20.8727 28.2565 19.1785 27.011 18.3549 25.377L20.6517 24.0511C21.2544 25.0355 22.0446 25.7654 23.4308 25.7654C24.5959 25.7654 25.3459 25.1828 25.3459 24.3726C25.3459 23.4083 24.5825 23.0668 23.2901 22.4976L22.587 22.1962C20.5513 21.3324 19.2053 20.2409 19.2053 17.944C19.2053 15.8279 20.8191 14.2208 23.3303 14.2208C25.1249 14.2208 26.4107 14.8435 27.3348 16.4775L25.1383 17.8837C24.6562 17.0199 24.1339 16.6784 23.3236 16.6784C22.4999 16.6784 21.9776 17.2007 21.9776 17.8837C21.9776 18.7275 22.4999 19.069 23.712 19.598L24.4151 19.8993C26.8124 20.9239 28.1584 21.9752 28.1584 24.3324C28.1584 26.8636 26.1629 28.2565 23.491 28.2565Z" fill="#EDEDED"/>
</svg>
