<svg width="28" height="31" viewBox="0 0 28 31" fill="none" xmlns="http://www.w3.org/2000/svg">
<path d="M26.0689 7.24467L15.048 0.881856C14.4131 0.515293 13.3742 0.515293 12.7393 0.881856L1.71857 7.24467C1.08364 7.61123 0.564209 8.511 0.564209 9.24413V21.9698C0.613604 22.8236 1.04972 23.5307 1.71851 23.9692L12.7394 30.332C13.3742 30.6986 14.4132 30.6986 15.0481 30.332L26.0689 23.9692C26.7866 23.4919 27.1951 22.7734 27.2233 21.9698V9.24413C27.1975 8.47274 26.7356 7.69473 26.069 7.24467H26.0689ZM5.00738 15.607C4.95517 6.92985 16.5773 3.0984 21.5892 11.161L17.7434 13.3864C15.4218 9.54659 9.65744 10.9196 9.45054 15.607C9.51265 19.9271 15.1783 21.9338 17.7437 17.8272L21.5895 20.0526C17.1725 27.7203 5.23009 24.9616 5.00743 15.607H5.00738ZM22.78 16.1006H21.7926V17.088H20.8054V16.1006H19.818V15.1133H20.8054V14.126H21.7927V15.1133H22.7801V16.1006H22.78ZM26.4827 16.1006H25.4953V17.088H24.508V16.1006H23.5207V15.1133H24.5081V14.126H25.4953V15.1133H26.4828V16.1006H26.4827Z" fill="#EDEDED"/>
</svg>
