<svg width="23" height="31" viewBox="0 0 23 31" fill="none" xmlns="http://www.w3.org/2000/svg">
<path d="M16.5467 18.9407C17.1209 18.5481 17.9178 18.2083 17.9178 18.2083C17.9178 18.2083 15.6502 18.6184 13.3944 18.8059C10.6347 19.0344 7.66989 19.0813 6.18162 18.8821C2.66019 18.4133 8.11519 17.1184 8.11519 17.1184C8.11519 17.1184 5.99999 16.9778 3.3926 18.2317C0.316468 19.72 11.0097 20.3996 16.5467 18.9407ZM11.5429 17.0598C10.4296 14.5579 6.67381 12.3607 11.5429 8.51699C17.6166 3.72408 14.5018 0.606934 14.5018 0.606934C15.7616 5.55804 10.0722 7.05802 8.01558 10.1342C6.61521 12.2376 8.70112 14.4935 11.5429 17.0598ZM18.2576 6.73576C18.2635 6.73576 7.99215 9.30213 12.8964 14.9505C14.3436 16.6145 12.5155 18.1145 12.5155 18.1145C12.5155 18.1145 16.1893 16.2161 14.5018 13.8431C12.9257 11.6283 11.7187 10.5267 18.2576 6.73576ZM17.9002 22.5852C17.8682 22.641 17.8288 22.6922 17.783 22.7375C25.3005 20.7629 22.5349 15.7708 18.9432 17.0364C18.7492 17.1077 18.5816 17.2365 18.4627 17.4055C18.6725 17.3296 18.888 17.2708 19.1072 17.2298C20.9236 16.8489 23.531 19.6614 17.9002 22.5852ZM20.6635 26.2355C20.6635 26.2355 21.5131 26.9328 19.7318 27.4777C16.3393 28.503 5.62265 28.8136 2.64612 27.5187C1.57387 27.0558 3.58361 26.4054 4.21642 26.2707C4.87266 26.13 5.25351 26.1535 5.25351 26.1535C4.06407 25.3156 -2.43975 27.7999 1.94887 28.5089C13.9159 30.4542 23.7689 27.6359 20.6635 26.2355ZM7.56442 23.8098C2.95315 25.0988 10.371 27.7589 16.242 25.2453C15.6694 25.0228 15.1167 24.7523 14.5897 24.4367C11.9706 24.9347 10.7577 24.9699 8.37886 24.7004C6.416 24.4777 7.56442 23.8098 7.56442 23.8098ZM18.0994 29.505C13.4882 30.3722 7.79879 30.2726 4.42969 29.7159C4.42969 29.7101 5.12109 30.2843 8.67183 30.5128C14.0741 30.8585 22.3709 30.3194 22.5642 27.7648C22.5642 27.7648 22.1892 28.7316 18.0994 29.505ZM15.5448 21.2903C12.0761 21.9582 10.0663 21.9406 7.52926 21.677C5.5664 21.4719 6.84958 20.5227 6.84958 20.5227C1.76371 22.2102 9.67376 24.1203 16.7811 22.0402C16.3217 21.878 15.9008 21.6227 15.5448 21.2903Z" fill="#EDEDED"/>
</svg>
