<svg width="38" height="26" viewBox="0 0 38 26" fill="none" xmlns="http://www.w3.org/2000/svg">
<path d="M25.7954 2.63798C25.6189 2.63798 25.4993 2.65946 25.375 2.6886V2.70855H25.3965C25.4793 2.86808 25.6205 2.98467 25.7248 3.12734C25.8076 3.29148 25.8782 3.45562 25.961 3.61823L25.9825 3.59522C26.1267 3.49397 26.1973 3.33136 26.1973 3.08438C26.1359 3.01228 26.1267 2.94018 26.0745 2.86962C26.0132 2.76684 25.8813 2.71622 25.7984 2.63491L25.7954 2.63798ZM9.48094 22.878H8.05889C8.0189 20.618 7.8807 18.3609 7.6447 16.1129H7.63243L5.46945 22.878H4.38795L2.24031 16.1129H2.22497C2.05698 18.3644 1.95723 20.6205 1.92583 22.878H0.629578C0.713949 19.8621 0.924112 17.0333 1.25853 14.3948H3.02267L5.0706 20.6291H5.08287L7.14921 14.3948H8.82897C9.20021 17.4859 9.41804 20.3162 9.48554 22.878H9.48094ZM15.6431 16.6191C15.0633 19.7562 14.2993 22.0389 13.3544 23.4609C12.615 24.5593 11.805 25.1069 10.926 25.1069C10.6913 25.1069 10.4044 25.0364 10.0577 24.8952V24.1374C10.2265 24.1635 10.4259 24.1773 10.6499 24.1773C11.061 24.1773 11.3908 24.0623 11.6424 23.8368C11.9446 23.5606 12.0949 23.2508 12.0949 22.9087C12.0949 22.6709 11.9768 22.1877 11.7421 21.4605L10.1866 16.6191H11.5826L12.6978 20.2395C12.9494 21.0617 13.0552 21.6354 13.0123 21.9622C13.6259 20.33 14.0523 18.5459 14.2932 16.6191H15.6431ZM34.5501 22.878H30.5156V14.3948H31.8732V21.8348H34.5501V22.878ZM29.4571 23.0851L27.8985 22.3181C28.0366 22.2015 28.17 22.0757 28.2897 21.9346C28.9539 21.1583 29.2837 20.0047 29.2837 18.4784C29.2837 15.6711 28.1823 14.2659 25.9779 14.2659C24.8979 14.2659 24.0542 14.6218 23.4468 15.3352C22.7871 16.1144 22.4558 17.2619 22.4558 18.7791C22.4558 20.2701 22.7472 21.3654 23.3363 22.0619C23.8732 22.6908 24.6817 23.0053 25.7647 23.0053C26.1697 23.0053 26.5409 22.9547 26.8768 22.855L28.9094 24.0392L29.4617 23.0851H29.4571ZM24.4071 21.1798C24.0619 20.6276 23.8901 19.7378 23.8901 18.5167C23.8901 16.3798 24.5405 15.3106 25.8383 15.3106C26.5179 15.3106 27.0195 15.5668 27.3371 16.0776C27.6807 16.6329 27.8525 17.5135 27.8525 18.7208C27.8525 20.8745 27.2021 21.9545 25.9043 21.9545C25.2216 21.9545 24.7231 21.6983 24.404 21.1875L24.4071 21.1798ZM21.8636 20.5279C21.8636 21.2488 21.5998 21.841 21.0721 22.3012C20.5444 22.7614 19.8402 22.9915 18.949 22.9915C18.116 22.9915 17.3168 22.7276 16.5359 22.2015L16.8995 21.4713C17.5714 21.8088 18.1774 21.9744 18.725 21.9744C19.2343 21.9744 19.6347 21.8625 19.9262 21.637C20.0718 21.5271 20.1895 21.3844 20.2694 21.2204C20.3494 21.0565 20.3895 20.8759 20.3864 20.6935C20.3864 20.1873 20.0335 19.7578 19.3923 19.3973C18.7971 19.0705 17.6082 18.3894 17.6082 18.3894C16.9609 17.9185 16.6387 17.4138 16.6387 16.5839C16.6387 15.8935 16.8796 15.3413 17.3597 14.9194C17.8429 14.493 18.4642 14.2828 19.2312 14.2828C20.0167 14.2828 20.7346 14.4914 21.3789 14.9118L21.0521 15.642C20.5373 15.4158 19.9822 15.2958 19.4199 15.2891C18.9858 15.2891 18.6498 15.3934 18.4167 15.6051C18.2983 15.7032 18.2029 15.8259 18.1372 15.9648C18.0715 16.1037 18.037 16.2553 18.0362 16.409C18.0362 16.9121 18.3952 17.3447 19.0579 17.7129C19.6608 18.0427 20.8788 18.7407 20.8788 18.7407C21.543 19.2086 21.8728 19.7071 21.8728 20.5325L21.8636 20.5279ZM36.2559 11.5507C35.4352 11.5292 34.7986 11.6121 34.2663 11.8391C34.1129 11.9005 33.8674 11.9005 33.846 12.0953C33.9303 12.1766 33.9426 12.31 34.0147 12.4236C34.1374 12.6291 34.3491 12.9037 34.5455 13.0479C34.7602 13.2167 34.975 13.3793 35.2005 13.5235C35.5993 13.7689 36.0519 13.9146 36.4431 14.1616C36.6655 14.3058 36.8925 14.4884 37.118 14.6418C37.23 14.7185 37.3021 14.8565 37.4463 14.9056V14.8749C37.3758 14.7829 37.3543 14.6494 37.2853 14.5467C37.1825 14.4439 37.0797 14.3518 36.9784 14.2506C36.6773 13.8537 36.3178 13.5046 35.9123 13.2151C35.584 12.9912 34.8661 12.6782 34.7311 12.3024L34.7111 12.2809C34.9351 12.261 35.202 12.1797 35.4168 12.1183C35.765 12.0262 36.0841 12.0462 36.4446 11.9557C36.6072 11.9143 36.7713 11.8636 36.9355 11.8115V11.7194C36.7514 11.5354 36.6133 11.2853 36.4231 11.1135C35.8922 10.6494 35.326 10.2273 34.7296 9.851C34.4074 9.64544 33.9994 9.51351 33.6603 9.33863C33.5376 9.27727 33.3321 9.24659 33.2615 9.14381C33.0774 8.91984 32.97 8.62224 32.8396 8.35531C32.5384 7.77098 32.2585 7.1759 32.0005 6.57124C31.8164 6.16932 31.7044 5.76894 31.4789 5.40077C30.4205 3.65658 29.2745 2.59963 27.5119 1.56569C27.133 1.35093 26.679 1.25889 26.1988 1.14537C25.9426 1.1331 25.6864 1.11469 25.4318 1.10395C25.263 1.03185 25.1004 0.837028 24.9562 0.743452C24.3733 0.375284 22.8638 -0.422412 22.4343 0.633001C22.1582 1.29877 22.8439 1.95534 23.0817 2.29282C23.2581 2.52753 23.4805 2.79599 23.6032 3.05984C23.6753 3.23779 23.6953 3.42034 23.7674 3.60595C23.93 4.05696 24.0849 4.56012 24.2997 4.98198C24.4117 5.19674 24.5344 5.42225 24.6786 5.61553C24.7614 5.72752 24.9025 5.77968 24.9348 5.96376C24.7906 6.17239 24.7814 6.47613 24.6985 6.73078C24.3304 7.89204 24.4746 9.32789 24.9961 10.1823C25.1603 10.437 25.5514 11.0015 26.0745 10.7852C26.5348 10.6011 26.4335 10.0182 26.5654 9.5043C26.5961 9.38158 26.5762 9.30028 26.6391 9.21744V9.24045C26.7833 9.52885 26.9275 9.80344 27.0594 10.0918C27.3754 10.595 27.9277 11.1166 28.3894 11.4648C28.6348 11.6489 28.8297 11.968 29.1365 12.0815V12.0508H29.1135C29.0475 11.9618 28.9601 11.9189 28.8772 11.8468C28.6827 11.6564 28.5032 11.4512 28.3403 11.2332C27.9081 10.6426 27.5249 10.0177 27.1944 9.36471C27.0256 9.04256 26.8845 8.69587 26.7495 8.37833C26.6882 8.2556 26.6882 8.07152 26.5854 8.01016C26.432 8.23413 26.2065 8.42895 26.0945 8.70507C25.8997 9.14688 25.8797 9.68992 25.8061 10.2544C25.7647 10.2652 25.7846 10.2544 25.7647 10.2759C25.4364 10.1962 25.3244 9.8556 25.2017 9.57027C24.8949 8.8416 24.8443 7.67114 25.1096 6.83202C25.1817 6.61726 25.4886 5.93922 25.3658 5.73366C25.3014 5.53883 25.0989 5.42685 24.9869 5.26884C24.8429 5.0632 24.7195 4.84378 24.6188 4.61381C24.3733 4.04008 24.2506 3.405 23.9837 2.83127C23.8609 2.56588 23.6462 2.28822 23.4713 2.04431C23.2765 1.76818 23.0617 1.57336 22.9068 1.24661C22.8562 1.13463 22.7841 0.949012 22.8654 0.82629C22.8868 0.743452 22.9298 0.711237 23.0096 0.688227C23.1446 0.577777 23.5235 0.721975 23.6569 0.783337C24.0358 0.93674 24.3549 1.08094 24.6724 1.2957C24.8166 1.39695 24.9716 1.59177 25.1557 1.64239H25.3704C25.6987 1.71449 26.0684 1.66387 26.3752 1.75438C26.9198 1.92926 27.4107 2.18391 27.851 2.46003C29.2076 3.32663 30.311 4.53642 31.0494 5.96683C31.1721 6.20307 31.2258 6.41937 31.3378 6.66481C31.5526 7.17104 31.818 7.68187 32.0358 8.17123C32.2506 8.65445 32.4577 9.14688 32.766 9.54726C32.9194 9.76202 33.5361 9.87401 33.8122 9.98599C34.0162 10.078 34.3338 10.1624 34.5179 10.2744C34.8707 10.4892 35.2143 10.7346 35.5457 10.9708C35.7144 11.0874 36.2252 11.3436 36.2559 11.5507Z" fill="#EDEDED"/>
</svg>
