<svg width="56" height="56" viewBox="0 0 56 56" fill="none" xmlns="http://www.w3.org/2000/svg">
<circle cx="28" cy="28" r="28" fill="#007991"/>
<circle cx="28" cy="28" r="14" fill="#78FFD6"/>
<path d="M43.1051 37.0119L43.5646 36.2342L48.5922 39.2053C48.9201 39.399 49.1614 39.621 49.316 39.8712C49.4718 40.1259 49.5409 40.3992 49.5233 40.6913C49.5085 40.9851 49.4101 41.2861 49.2279 41.5944C49.1749 41.684 49.1163 41.7704 49.0521 41.8535C48.9862 41.9393 48.9164 42.0191 48.8427 42.0927L48.2327 41.6755C48.2815 41.625 48.3311 41.5635 48.3814 41.4912C48.4301 41.4216 48.4759 41.3504 48.519 41.2775C48.6167 41.1122 48.6675 40.9494 48.6715 40.7891C48.6766 40.6333 48.6343 40.4874 48.5446 40.3512C48.455 40.215 48.3176 40.0923 48.1327 39.983L43.1051 37.0119ZM47.0821 40.6666L46.4852 40.3139L47.9409 37.8505L48.5378 38.2033L47.0821 40.6666Z" fill="white"/>
<path d="M44.6146 42.5182L41.3828 39.4545L42.0043 38.799L45.8385 42.4337L45.2338 43.0715L44.6146 42.5182ZM44.1028 44.3071L43.4967 43.7258C43.56 43.6827 43.6164 43.6374 43.6658 43.59C43.7153 43.5473 43.7691 43.4952 43.8274 43.4338C43.9707 43.2826 44.0736 43.1267 44.1361 42.9661C44.1986 42.8056 44.2254 42.6448 44.2165 42.4839C44.2076 42.323 44.1664 42.1629 44.0931 42.0036C44.0199 41.849 43.9203 41.6986 43.7944 41.5523L43.8628 41.2672C44.0943 41.4867 44.2903 41.7152 44.451 41.9526C44.6093 42.1925 44.7206 42.4347 44.7847 42.6794C44.8511 42.9263 44.8575 43.1656 44.8038 43.3973C44.7503 43.6336 44.625 43.8557 44.4279 44.0636C44.3831 44.1108 44.3257 44.1596 44.2557 44.2098C44.188 44.2623 44.137 44.2947 44.1028 44.3071Z" fill="white"/>
<path d="M40.5191 44.1086L40.5737 44.2067C40.7591 44.5395 40.8826 44.8749 40.9443 45.2132C41.0076 45.5543 41.0069 45.8807 40.9421 46.1925C40.8789 46.5072 40.7504 46.7949 40.5565 47.0557C40.3643 47.3192 40.1075 47.5405 39.7861 47.7195C39.4619 47.9001 39.1372 48.0028 38.8119 48.0275C38.4853 48.0566 38.1716 48.0152 37.8708 47.9033C37.5687 47.7958 37.2894 47.6254 37.0327 47.3921C36.7776 47.1615 36.5574 46.8799 36.372 46.5472L36.3174 46.4491C36.1321 46.1164 36.0085 45.7809 35.9468 45.4426C35.8851 45.1044 35.8873 44.7772 35.9533 44.4609C36.0181 44.1491 36.1466 43.8614 36.3389 43.5978C36.5299 43.3386 36.7875 43.1188 37.1116 42.9382C37.4358 42.7576 37.7598 42.6535 38.0835 42.626C38.4088 42.6013 38.7225 42.6427 39.0246 42.7501C39.3254 42.862 39.6034 43.0332 39.8585 43.2638C40.1135 43.4943 40.3338 43.7759 40.5191 44.1086ZM39.7846 44.6463L39.7299 44.5482C39.6016 44.3179 39.4534 44.1154 39.2854 43.9407C39.1189 43.7689 38.938 43.6349 38.7428 43.5387C38.5448 43.444 38.338 43.3972 38.1223 43.398C37.9083 43.4017 37.6918 43.4646 37.4728 43.5866C37.2567 43.707 37.0921 43.8564 36.9791 44.0348C36.8649 44.2177 36.7973 44.4174 36.7763 44.634C36.7554 44.8506 36.7741 45.0749 36.8326 45.307C36.8898 45.5434 36.9825 45.7768 37.1108 46.0071L37.1655 46.1052C37.2922 46.3327 37.4402 46.5316 37.6096 46.7018C37.7776 46.8765 37.9607 47.0111 38.1587 47.1058C38.3555 47.2048 38.5617 47.2539 38.7773 47.253C38.9901 47.2537 39.206 47.1931 39.425 47.0711C39.6411 46.9508 39.8063 46.7991 39.9205 46.6162C40.0319 46.435 40.0988 46.2338 40.121 46.0128C40.1419 45.7962 40.1224 45.5704 40.0623 45.3356C40.0039 45.1036 39.9113 44.8738 39.7846 44.6463Z" fill="white"/>
<path d="M33.3897 49.127L32.7182 45.0264L33.6097 44.8804L34.4634 50.0942L33.6201 50.2323L33.3897 49.127ZM33.3894 47.7961L33.7629 47.7498C33.818 48.1069 33.8189 48.4449 33.7656 48.7637C33.7128 49.0857 33.6116 49.3744 33.4621 49.6298C33.3126 49.8851 33.1193 50.0949 32.8823 50.2591C32.6427 50.427 32.3654 50.5367 32.0506 50.5882C31.7936 50.6303 31.5565 50.6328 31.3393 50.5958C31.1227 50.562 30.9297 50.4815 30.7605 50.3542C30.588 50.2274 30.4434 50.0498 30.3269 49.8215C30.2109 49.5964 30.1247 49.312 30.0684 48.9683L29.509 45.5519L30.4053 45.4051L30.9663 48.8312C31.011 49.1042 31.0869 49.3161 31.194 49.4668C31.3017 49.6207 31.4387 49.7219 31.605 49.7706C31.7718 49.8224 31.9676 49.8299 32.1925 49.7931C32.4142 49.7568 32.6089 49.6771 32.7768 49.554C32.9414 49.4313 33.0762 49.2773 33.1811 49.0919C33.2827 48.9071 33.3532 48.7026 33.3923 48.4784C33.4288 48.2581 33.4278 48.0306 33.3894 47.7961Z" fill="white"/>
<path d="M24.5322 50.583L24.6124 49.8942L27.4497 50.2248L27.3694 50.9135L24.5322 50.583ZM26.2605 52.0772L25.3633 51.9726L25.9718 46.7492C25.9926 46.5713 25.9807 46.434 25.9363 46.337C25.8919 46.2401 25.8277 46.172 25.7438 46.1327C25.6599 46.0934 25.5678 46.068 25.4676 46.0563C25.3932 46.0476 25.3149 46.0451 25.2325 46.0486C25.1466 46.0549 25.082 46.0605 25.0388 46.0653L25.1193 45.3324C25.1931 45.3181 25.2893 45.308 25.408 45.3021C25.5238 45.2927 25.6625 45.2974 25.8242 45.3162C26.044 45.3418 26.241 45.409 26.4152 45.5178C26.5893 45.6266 26.7195 45.7892 26.8057 46.0057C26.8883 46.2251 26.9092 46.5094 26.8685 46.8586L26.2605 52.0772Z" fill="white"/>
<path d="M22.0049 44.3753C22.3449 44.5155 22.6298 44.6999 22.8596 44.9284C23.0851 45.1587 23.2537 45.4201 23.3655 45.7126C23.4742 46.0039 23.5217 46.3157 23.5079 46.6481C23.4942 46.9804 23.4166 47.3181 23.2751 47.6612L23.197 47.8508C23.0332 48.2481 22.8287 48.5775 22.5836 48.8391C22.3372 49.1037 22.0685 49.3028 21.7775 49.4363C21.4865 49.5699 21.1902 49.6396 20.8885 49.6455C20.5868 49.6514 20.299 49.5979 20.0251 49.485C19.676 49.3411 19.3999 49.1568 19.1967 48.9322C18.9905 48.7064 18.8509 48.4516 18.7777 48.1679C18.7033 47.8872 18.6871 47.5848 18.7292 47.2606C18.7701 46.9395 18.8612 46.6073 19.0026 46.2643L19.1571 45.8896L22.8046 47.3933L22.5236 48.0749L19.7112 46.9155L19.6852 46.9787C19.6079 47.2004 19.5662 47.4296 19.5601 47.6665C19.5509 47.9022 19.6018 48.1204 19.7128 48.321C19.8237 48.5217 20.0221 48.6809 20.308 48.7988C20.4976 48.877 20.6889 48.9083 20.8819 48.8928C21.0737 48.8803 21.259 48.8194 21.4379 48.71C21.6167 48.6007 21.7843 48.4462 21.9406 48.2465C22.0968 48.0469 22.2357 47.7996 22.3573 47.5047L22.4355 47.3151C22.531 47.0833 22.5894 46.8521 22.6105 46.6214C22.6274 46.3925 22.6058 46.1758 22.5457 45.9715C22.4826 45.7659 22.3803 45.5829 22.2387 45.4224C22.0941 45.2607 21.9074 45.1327 21.6787 45.0384C21.3838 44.9168 21.1092 44.874 20.8549 44.91C20.6006 44.946 20.3552 45.0332 20.1186 45.1716L19.7786 44.5614C19.9497 44.4453 20.1463 44.3485 20.3684 44.2711C20.5904 44.1936 20.8389 44.1587 21.1139 44.1665C21.3859 44.173 21.6829 44.2426 22.0049 44.3753Z" fill="white"/>
<path d="M14.7893 45.266L17.6022 42.2076L18.267 42.8191L14.6906 46.7077L14.0617 46.1293L14.7893 45.266ZM15.8366 44.4447L16.1034 44.71C15.8564 44.9737 15.591 45.183 15.3072 45.3377C15.0212 45.4948 14.7315 45.5933 14.4383 45.6332C14.1451 45.6731 13.8608 45.6504 13.5854 45.5652C13.3054 45.4801 13.048 45.3296 12.8132 45.1137C12.6215 44.9374 12.4732 44.7524 12.3684 44.5586C12.2613 44.3673 12.2056 44.1657 12.2014 43.9539C12.1947 43.74 12.2453 43.5167 12.3531 43.2841C12.4586 43.0539 12.6293 42.8107 12.8651 42.5543L15.2086 40.0062L15.8771 40.621L13.527 43.1763C13.3397 43.3799 13.2198 43.5704 13.1673 43.7477C13.1126 43.9274 13.1174 44.0976 13.1817 44.2585C13.2438 44.4218 13.3588 44.5806 13.5265 44.7348C13.6918 44.8869 13.8747 44.9909 14.0752 45.0471C14.2732 45.101 14.4776 45.112 14.6882 45.0802C14.8964 45.0461 15.1008 44.9754 15.3014 44.8679C15.4973 44.7607 15.6757 44.6196 15.8366 44.4447Z" fill="white"/>
<path d="M11.3645 36.0767L5.60778 39.0399L5.19212 38.2324L11.8605 34.7999L12.2404 35.5379L11.3645 36.0767ZM11.6065 39.9501L11.5153 39.997C11.1564 40.1818 10.8084 40.306 10.4714 40.3696C10.13 40.4318 9.81197 40.4363 9.51726 40.383C9.22106 40.3268 8.95842 40.2148 8.72934 40.0472C8.49587 39.8781 8.30688 39.6532 8.16237 39.3725C8.01041 39.0773 7.92991 38.7929 7.92088 38.5193C7.90746 38.2443 7.95968 37.9794 8.07753 37.7247C8.191 37.4686 8.36212 37.2249 8.59089 36.9936C8.81966 36.7624 9.09877 36.54 9.4282 36.3265L9.82761 36.1209C10.1884 35.9755 10.5301 35.8783 10.8528 35.8294C11.1739 35.7776 11.4717 35.7799 11.746 35.8364C12.0189 35.8899 12.2648 36.0013 12.4837 36.1706C12.6997 36.3413 12.8845 36.5757 13.0379 36.8738C13.1794 37.1488 13.2497 37.4311 13.2488 37.7208C13.2463 38.0077 13.1804 38.2887 13.0512 38.5639C12.9204 38.8362 12.7334 39.0918 12.4902 39.3305C12.2426 39.5678 11.948 39.7743 11.6065 39.9501ZM11.0996 39.1895L11.1908 39.1426C11.4252 39.0219 11.6333 38.8856 11.8149 38.7335C11.9951 38.5785 12.1373 38.4101 12.2414 38.2284C12.3456 38.0466 12.4023 37.8545 12.4115 37.652C12.4179 37.4511 12.3652 37.242 12.2535 37.025C12.1164 36.7587 11.9475 36.5692 11.7468 36.4566C11.5445 36.341 11.3239 36.2788 11.0851 36.27C10.8462 36.2611 10.6033 36.2836 10.3565 36.3375L9.31017 36.876C9.16886 36.9927 9.04154 37.1223 8.9282 37.2649C8.81047 37.406 8.72054 37.5585 8.6584 37.7223C8.59188 37.8846 8.56262 38.059 8.57063 38.2452C8.57714 38.4286 8.63255 38.6216 8.73683 38.8242C8.85006 39.0441 8.99395 39.2099 9.16851 39.3214C9.33868 39.4315 9.52943 39.4962 9.74076 39.5156C9.94919 39.5364 10.1703 39.5178 10.404 39.4598C10.6333 39.4003 10.8652 39.3102 11.0996 39.1895Z" fill="white"/>
<path d="M7.85796 29.7484C7.8222 29.2898 7.41381 28.9405 6.9552 28.9762C6.49659 29.012 6.14729 29.4204 6.18305 29.879C6.21881 30.3376 6.62721 30.6869 7.08581 30.6511C7.54442 30.6154 7.89373 30.207 7.85796 29.7484Z" fill="white"/>
<path d="M10.6529 21.7178L4.51042 19.6706L4.79758 18.809L11.9128 21.1804L11.6503 21.9679L10.6529 21.7178ZM8.05121 24.5976L7.95393 24.5652C7.57099 24.4376 7.23901 24.2754 6.95797 24.0788C6.67488 23.8781 6.44944 23.6537 6.28164 23.4056C6.11487 23.1545 6.0114 22.8884 5.97124 22.6074C5.92903 22.3222 5.95784 22.0299 6.05768 21.7303C6.16266 21.4153 6.30985 21.159 6.49925 20.9614C6.68659 20.7596 6.91253 20.6119 7.17708 20.5182C7.43957 20.4204 7.73346 20.3725 8.05875 20.3745C8.38403 20.3766 8.73814 20.4208 9.12108 20.5073L9.54725 20.6493C9.90343 20.8058 10.2117 20.9823 10.4722 21.1789C10.7337 21.3724 10.9401 21.587 11.0914 21.8228C11.2437 22.0554 11.3359 22.3091 11.3678 22.584C11.3966 22.8578 11.3581 23.1537 11.252 23.4718C11.1543 23.7652 11.0014 24.0128 10.7935 24.2146C10.5866 24.4132 10.3395 24.5625 10.0523 24.6624C9.76617 24.7591 9.45272 24.8039 9.112 24.7967C8.76921 24.7854 8.41561 24.7191 8.05121 24.5976ZM8.24109 23.7036L8.33837 23.736C8.58851 23.8194 8.83145 23.8729 9.06718 23.8965C9.30394 23.9171 9.52371 23.9012 9.7265 23.8487C9.92929 23.7961 10.1063 23.7025 10.2577 23.5676C10.4059 23.4317 10.5186 23.248 10.5958 23.0164C10.6905 22.7322 10.708 22.479 10.6483 22.2567C10.5896 22.0312 10.4799 21.83 10.3193 21.6529C10.1587 21.4759 9.97293 21.3179 9.7619 21.1789L8.64552 20.8069C8.46331 20.7873 8.28163 20.7868 8.10046 20.8053C7.91723 20.8198 7.74532 20.862 7.58474 20.932C7.4221 20.9979 7.27696 21.0987 7.14932 21.2346C7.02271 21.3674 6.92338 21.5419 6.85133 21.7581C6.77311 21.9928 6.75511 22.2115 6.79732 22.4143C6.83747 22.613 6.92446 22.7947 7.05829 22.9594C7.18903 23.123 7.35683 23.2682 7.56168 23.3948C7.76448 23.5173 7.99094 23.6202 8.24109 23.7036Z" fill="white"/>
<path d="M17.5027 13.038L16.4234 8.46802L17.2126 7.98976L18.3262 13.4925L17.8084 13.8063L17.5027 13.038ZM14.1559 9.84208L17.7576 12.9121L18.2552 13.5355L17.7374 13.8493L13.3624 10.3229L14.1559 9.84208Z" fill="white"/>
<path d="M14.1024 17.6475C13.8724 17.9346 13.6155 18.1564 13.3317 18.3128C13.0475 18.4646 12.7492 18.5531 12.4371 18.5783C12.1269 18.601 11.8143 18.5591 11.4992 18.4526C11.1841 18.3462 10.8817 18.177 10.5921 17.945L10.432 17.8167C10.0967 17.5481 9.83782 17.2594 9.65551 16.9507C9.47066 16.64 9.35495 16.3262 9.30839 16.0095C9.26182 15.6927 9.27803 15.3887 9.35702 15.0975C9.436 14.8062 9.5681 14.545 9.7533 14.3138C9.98937 14.0191 10.2437 13.8058 10.5163 13.6738C10.7909 13.5392 11.0746 13.4766 11.3674 13.486C11.6577 13.4933 11.9525 13.5626 12.2519 13.6939C12.5487 13.8233 12.8419 14.0039 13.1315 14.2359L13.4478 14.4893L10.9812 17.5685L10.4058 17.1075L12.3076 14.7334L12.2543 14.6906C12.0632 14.5543 11.8548 14.4499 11.6292 14.3776C11.4055 14.3027 11.1819 14.2903 10.9581 14.3405C10.7344 14.3907 10.5259 14.5365 10.3325 14.7778C10.2043 14.9379 10.1206 15.1127 10.0813 15.3023C10.0395 15.4899 10.046 15.6849 10.1008 15.8872C10.1555 16.0896 10.2568 16.2938 10.4046 16.4998C10.5524 16.7058 10.7508 16.9085 10.9998 17.1079L11.1599 17.2361C11.3555 17.3928 11.5611 17.5137 11.7766 17.5987C11.9915 17.6792 12.2056 17.7193 12.4186 17.7189C12.6336 17.716 12.838 17.6691 13.0318 17.5782C13.2275 17.4848 13.4028 17.3415 13.5574 17.1485C13.7569 16.8995 13.875 16.6479 13.9118 16.3937C13.9485 16.1396 13.9337 15.8795 13.8673 15.6136L14.5483 15.4585C14.6118 15.6553 14.6495 15.8711 14.6615 16.106C14.6736 16.3409 14.6373 16.5892 14.5528 16.8509C14.4703 17.1102 14.3201 17.3757 14.1024 17.6475Z" fill="white"/>
<path d="M24.0768 11.1015C23.716 11.1728 23.3767 11.1769 23.0589 11.1136C22.7437 11.0465 22.4586 10.922 22.2036 10.7402C21.9518 10.5577 21.7398 10.3242 21.5674 10.0397C21.395 9.75526 21.2728 9.43101 21.2008 9.06696L21.1611 8.86578C21.0777 8.44425 21.0658 8.05672 21.1253 7.70317C21.1842 7.34644 21.2979 7.03195 21.4663 6.75973C21.6348 6.4875 21.8431 6.26547 22.0912 6.09365C22.3393 5.92182 22.6086 5.80718 22.8992 5.74972C23.2696 5.67648 23.6016 5.67721 23.8951 5.7519C24.1918 5.82597 24.4491 5.96092 24.667 6.15674C24.8843 6.34938 25.0651 6.59237 25.2093 6.88571C25.353 7.17586 25.4608 7.50295 25.5328 7.867L25.6114 8.26457L21.741 9.02984L21.598 8.30654L24.5822 7.71649L24.5689 7.64943C24.5107 7.42203 24.4186 7.20796 24.2926 7.00723C24.1699 6.80587 24.0068 6.65229 23.8034 6.54651C23.5999 6.44073 23.3465 6.41783 23.0432 6.47781C22.842 6.51759 22.6653 6.59732 22.5131 6.71701C22.3603 6.8335 22.2396 6.98677 22.1511 7.17682C22.0626 7.36687 22.0085 7.58828 21.9887 7.84104C21.969 8.09381 21.9901 8.37666 22.052 8.68962L22.0918 8.8908C22.1404 9.13669 22.2197 9.36158 22.3297 9.56547C22.4423 9.76554 22.5801 9.93406 22.7432 10.071C22.9096 10.2074 23.0961 10.3032 23.3028 10.3586C23.5127 10.4133 23.739 10.4167 23.9817 10.3687C24.2947 10.3068 24.5471 10.1905 24.739 10.0199C24.9309 9.84919 25.0871 9.64078 25.2077 9.39462L25.8285 9.71486C25.7501 9.90621 25.6399 10.0956 25.4978 10.2829C25.3557 10.4703 25.1679 10.6369 24.9346 10.7825C24.7044 10.9276 24.4185 11.0339 24.0768 11.1015Z" fill="white"/>
<path d="M29.6243 3.09493L29.2053 10.5832L28.2986 10.5325L28.7175 3.0442L29.6243 3.09493Z" fill="white"/>
<path d="M31.1554 7.96199L31.1893 7.85492C31.3041 7.49179 31.4634 7.17173 31.6671 6.89474C31.8718 6.61465 32.1097 6.39118 32.381 6.22434C32.6533 6.05439 32.9507 5.95046 33.2734 5.91254C33.5971 5.87152 33.9343 5.90648 34.285 6.0174C34.6388 6.12932 34.9363 6.29511 35.1775 6.5148C35.4228 6.73236 35.6079 6.98895 35.733 7.28455C35.8621 7.57803 35.9298 7.89819 35.9362 8.24504C35.9435 8.58878 35.8898 8.94222 35.7749 9.30534L35.741 9.41242C35.6262 9.77555 35.4669 10.0956 35.2632 10.3726C35.0595 10.6496 34.82 10.8726 34.5446 11.0415C34.2734 11.2084 33.9759 11.3123 33.6522 11.3533C33.3326 11.3922 32.996 11.3557 32.6421 11.2438C32.2883 11.1319 31.9903 10.9676 31.7481 10.7511C31.5069 10.5314 31.3218 10.2748 31.1927 9.98132C31.0677 9.68572 31.0015 9.36604 30.9941 9.0223C30.9868 8.67856 31.0405 8.32512 31.1554 7.96199ZM32.0505 8.12733L32.0167 8.23441C31.9371 8.48581 31.8915 8.73256 31.8798 8.97468C31.8691 9.21369 31.8957 9.4372 31.9596 9.6452C32.0267 9.85419 32.1345 10.0368 32.2831 10.1931C32.4327 10.3462 32.627 10.4606 32.866 10.5362C33.1018 10.6108 33.3234 10.628 33.5308 10.5877C33.7422 10.5453 33.9339 10.4574 34.1058 10.324C34.2778 10.1906 34.4281 10.0231 34.5567 9.82137C34.6895 9.61754 34.7956 9.38993 34.8751 9.13853L34.909 9.03146C34.9875 8.78316 35.0306 8.53902 35.0382 8.29903C35.0499 8.05691 35.0223 7.83136 34.9552 7.62238C34.8923 7.41127 34.7865 7.22759 34.6379 7.07133C34.4924 6.91606 34.3001 6.80063 34.0612 6.72504C33.8253 6.65043 33.6016 6.63432 33.3902 6.6767C33.1819 6.72006 32.9897 6.8095 32.8137 6.94502C32.6418 7.07842 32.491 7.24752 32.3613 7.45233C32.2327 7.65404 32.1291 7.87904 32.0505 8.12733Z" fill="white"/>
<path d="M39.9289 9.69554L36.0662 14.671L35.3488 14.114L39.8343 8.33635L40.49 8.84539L39.9289 9.69554ZM41.7704 13.1281L41.7075 13.209C41.472 13.5125 41.2174 13.7661 40.9438 13.9699C40.6721 14.1711 40.393 14.313 40.1065 14.3954C39.8225 14.4799 39.5393 14.497 39.2569 14.4467C38.9745 14.3964 38.7034 14.2705 38.4437 14.0689C38.1789 13.8633 37.9788 13.6379 37.8436 13.3928C37.7083 13.1476 37.6348 12.8866 37.6232 12.6097C37.6115 12.3328 37.6541 12.0444 37.7509 11.7445C37.8503 11.4466 37.9983 11.1392 38.195 10.8221L38.5304 10.3901C38.8008 10.1055 39.0732 9.87402 39.3477 9.69562C39.6222 9.51723 39.8958 9.39579 40.1684 9.33131C40.4455 9.26626 40.7193 9.26659 40.9898 9.3323C41.2622 9.39544 41.5295 9.52881 41.7918 9.73243C42.0541 9.93605 42.2468 10.1681 42.3701 10.4287C42.4954 10.6867 42.5546 10.9634 42.5477 11.2589C42.5409 11.5544 42.4703 11.8602 42.3361 12.1764C42.2065 12.492 42.0179 12.8092 41.7704 13.1281ZM40.9901 12.6521L41.053 12.5711C41.2147 12.3628 41.3446 12.1504 41.4426 11.934C41.5426 11.7149 41.6002 11.5 41.6155 11.2893C41.6353 11.078 41.6054 10.8776 41.5258 10.6881C41.4483 10.496 41.3118 10.3241 41.1164 10.1724C40.9364 10.0327 40.7556 9.94176 40.574 9.89967C40.395 9.85957 40.2182 9.8563 40.0438 9.88986C39.8714 9.92085 39.7037 9.98024 39.5408 10.068C39.3824 10.1552 39.2342 10.2586 39.0961 10.3781L38.3206 11.377C38.2323 11.5969 38.1725 11.8225 38.1413 12.0538C38.1121 12.2825 38.1367 12.5056 38.2151 12.7231C38.2955 12.938 38.4527 13.1363 38.6867 13.3179C38.8796 13.4676 39.0764 13.5565 39.2771 13.5846C39.4824 13.6121 39.6849 13.5901 39.8847 13.5186C40.0871 13.449 40.281 13.3399 40.4664 13.1913C40.6539 13.0401 40.8284 12.8604 40.9901 12.6521Z" fill="white"/>
<path d="M42.4779 18.2657C42.2827 17.954 42.158 17.6384 42.1039 17.3189C42.0543 17.0004 42.069 16.6897 42.1481 16.3867C42.2289 16.0864 42.3716 15.8051 42.5759 15.5427C42.7803 15.2803 43.0398 15.0506 43.3543 14.8536L43.5281 14.7448C43.8923 14.5167 44.2502 14.3675 44.6017 14.2972C44.956 14.2251 45.2904 14.2193 45.6048 14.2798C45.9191 14.3402 46.2008 14.4557 46.4497 14.6263C46.6987 14.7969 46.9017 15.0077 47.059 15.2588C47.2594 15.5788 47.3769 15.8893 47.4117 16.1901C47.4482 16.4938 47.4138 16.7822 47.3084 17.0556C47.2058 17.3273 47.0432 17.5827 46.8205 17.8221C46.6005 18.0596 46.3333 18.2769 46.0188 18.4739L45.6753 18.6889L43.5814 15.3451L44.2063 14.9538L45.8208 17.532L45.8787 17.4958C46.0705 17.3603 46.2377 17.198 46.3804 17.0088C46.5248 16.8223 46.6102 16.6152 46.6365 16.3875C46.6629 16.1597 46.594 15.9148 46.4299 15.6527C46.3211 15.4789 46.1836 15.3422 46.0176 15.2426C45.8543 15.1413 45.6681 15.0832 45.459 15.0682C45.2498 15.0532 45.0237 15.0815 44.7805 15.1531C44.5373 15.2247 44.2805 15.3452 44.0101 15.5145L43.8363 15.6234C43.6239 15.7564 43.442 15.9106 43.2907 16.086C43.1438 16.2625 43.0355 16.4513 42.9656 16.6525C42.8975 16.8565 42.8743 17.065 42.8963 17.2778C42.9199 17.4935 42.9974 17.7061 43.1287 17.9158C43.298 18.1862 43.4966 18.3806 43.7244 18.4991C43.9522 18.6176 44.2026 18.6893 44.4756 18.7143L44.3975 19.4084C44.1908 19.4034 43.9746 19.3679 43.7489 19.3019C43.5232 19.2358 43.3007 19.1197 43.0814 18.9536C42.8639 18.7902 42.6627 18.5609 42.4779 18.2657Z" fill="white"/>
<path d="M49.0487 21.5175L44.7462 22.6659L44.5133 21.7931L49.6178 20.4307L49.8444 21.2799L49.0487 21.5175ZM50.3046 22.8905L49.4919 23.1024C49.4883 23.0258 49.4793 22.9541 49.4648 22.8872C49.4543 22.8227 49.4381 22.7495 49.4163 22.6677C49.3626 22.4664 49.2837 22.2971 49.1797 22.1598C49.0757 22.0225 48.9528 21.9155 48.811 21.8387C48.6692 21.762 48.5113 21.7132 48.3373 21.6923C48.1672 21.6736 47.9869 21.6797 47.7963 21.7103L47.5893 21.5028C47.8975 21.4205 48.1948 21.3732 48.4813 21.3607C48.7685 21.3514 49.0332 21.3836 49.2752 21.4571C49.5203 21.5298 49.7275 21.6497 49.8967 21.8168C50.07 21.9862 50.1935 22.2093 50.2674 22.486C50.2842 22.5489 50.2956 22.6234 50.3017 22.7094C50.311 22.7945 50.3119 22.8549 50.3046 22.8905Z" fill="white"/>
<path d="M48.2883 29.7172C48.2471 30.1753 48.5916 30.5878 49.0498 30.629C49.5079 30.6702 49.9204 30.3257 49.9616 29.8676C50.0028 29.4094 49.6583 28.9969 49.2001 28.9557C48.742 28.9146 48.3295 29.259 48.2883 29.7172Z" fill="white"/>
<path d="M24.0707 25.5L21.0707 28L24.0707 30.5" stroke="#007991" stroke-linecap="round" stroke-linejoin="round"/>
<path d="M32.0707 25.5L35.0707 28L32.0707 30.5" stroke="#007991" stroke-linecap="round" stroke-linejoin="round"/>
<path d="M30.0707 22.5L26.0707 33.5" stroke="#007991" stroke-linecap="round" stroke-linejoin="round"/>
</svg>
